<svg xmlns="http://www.w3.org/2000/svg" viewBox="0 0 42 42">
  <path fill="#bc0031" fill-rule="evenodd" d="M0 42h42V0H0v42zM16.07 3.86l1.76-1.76L21 5.27l3.17-3.17 1.76 1.76-3.17 3.17 3.17 3.17-1.76 1.76L21 8.79l-3.17 3.17-1.76-1.76 3.17-3.17-3.17-3.17zm3.17 14.82-3.17-3.17 1.76-1.76L21 16.93l3.17-3.18 1.76 1.76-3.17 3.17 3.17 3.17-1.76 1.76L21 20.44l-3.17 3.17-1.76-1.76 3.17-3.17zm6.69 19.44-1.76 1.76L21 36.7l-3.18 3.18-1.75-1.76 3.17-3.17-3.17-3.18 1.75-1.75L21 33.19l3.17-3.17 1.76 1.75-3.18 3.18 3.18 3.17zm1.22-9.04v-3.82l-1.71 1.62s-1 1.03-3.28 1.61a11.4 11.4 0 0 1-7.57-.49 5.7 5.7 0 0 1-2.55-2.24c-.55-.86-.55-3-.55-3l.04-4-.3-6.74s1.02.04 1.72.04c.86 0 1.6-.19 1.62-.07.03.2.06 9.4.06 9.4s.1 1.96.58 2.96c.85 1.75 4.61 1.9 4.61 1.9s.59.07 1.9-.03c1.3-.1 3.86-.48 4.68-2.03 0 0 .59-.65.8-4.37.22-3.9-.3-7.75-.3-7.75l3.65-.17s-.25 2.76-.25 7.92c0 5.17.47 8.2.47 8.2l-3.62 1.06z"/>
</svg>
